<?xml version="1.0" encoding="UTF-8"?>
<svg id="Layer_2" data-name="Layer 2" xmlns="http://www.w3.org/2000/svg" xmlns:xlink="http://www.w3.org/1999/xlink" viewBox="0 0 953.01 964.54">
  <defs>
    <style>
      .cls-1, .cls-2, .cls-3, .cls-4 {
        fill: none;
      }

      .cls-2 {
        clip-path: url(#clippath-5);
      }

      .cls-3 {
        clip-path: url(#clippath-2);
      }

      .cls-4 {
        clip-path: url(#clippath-1);
      }
    </style>
    <clipPath id="clippath-1">
      <rect class="cls-1" x="0" y="11.22" width="953" height="953"/>
    </clipPath>
    <clipPath id="clippath-2">
      <rect class="cls-1" x="98.33" y="109.85" width="756.97" height="757"/>
    </clipPath>
    <mask id="mask" x="-123.37" y="-112" width="1200" height="1857.02" maskUnits="userSpaceOnUse">
      <g id="id5">
        <rect x="-123.37" y="-112" width="1200" height="1200"/>
      </g>
    </mask>
    <clipPath id="clippath-3">
      <polyline class="cls-1" points=".63 0 941.96 0 941.96 941.33 .63 941.33"/>
    </clipPath>
    <clipPath id="clippath-5">
      <rect class="cls-1" y="11.22" width="953" height="953"/>
    </clipPath>
  </defs>
  <g id="Layer_1-2" data-name="Layer 1">
    <g>
      <g class="cls-4">
        <path d="m476.34,964.22C213.83,964.22,0,750.4,0,487.56S213.83,11.22,476.34,11.22s476.34,213.82,476.34,476.34c.32,262.84-213.49,476.66-476.34,476.66Zm0-944.94C218.02,19.28,8.07,229.23,8.07,487.56s210.28,468.6,468.28,468.6,468.6-210.27,468.6-468.6S734.67,19.28,476.34,19.28Z"/>
      </g>
      <g class="cls-3">
        <path d="m476.7,866.85c-208.53,0-378.37-169.84-378.37-378.63S268.17,109.85,476.7,109.85s378.38,169.84,378.38,378.38c.26,208.78-169.59,378.63-378.38,378.63Zm0-750.59c-205.19,0-371.96,166.77-371.96,371.97s167.03,372.22,371.96,372.22,372.22-167.03,372.22-372.22S681.9,116.26,476.7,116.26Z"/>
      </g>
      <path d="m129.4,279.64l-2.19,3.6-27.88-16.92-5.98,9.85-3.19-1.96,14.15-23.31,3.19,1.96-5.98,9.85,27.88,16.92Z"/>
      <path d="m130.13,250.88l12.27,8.85-2.48,3.42-29.48-21.27,5.85-8.08c2.6-3.61,5.22-5.78,7.85-6.5,2.63-.73,5.33-.09,8.13,1.92,3.89,2.81,5.09,6.68,3.63,11.6l19.02,1.56-2.92,4.04-17.44-1.71-4.44,6.17Zm-2.94-2.1l3.4-4.71c1.75-2.42,2.55-4.53,2.4-6.35-.15-1.83-1.19-3.45-3.1-4.85-1.96-1.4-3.78-1.83-5.48-1.29-1.69.53-3.45,2.06-5.27,4.6l-3.23,4.46,11.29,8.15Z"/>
      <path d="m175.06,218.57l-11.71-4.08-9.5,11.06,5.85,10.92-2.77,3.25-18.38-34.69,2.31-2.71,37.04,12.92-2.85,3.33Zm-15.46-5.58l-11.31-4.1c-1.43-.51-3.13-1.22-5.1-2.13.97,1.31,1.97,2.84,2.98,4.6l5.77,10.56,7.67-8.94Z"/>
      <path d="m203.39,190.2l-3.46,3.35-35.52-8.06-.15.15c2.68,2.39,5.06,4.66,7.13,6.79l14.4,14.83-2.79,2.71-25.31-26.08,3.44-3.33,35.38,8,.13-.15c-.32-.29-1.37-1.27-3.15-2.94-1.78-1.67-3.02-2.89-3.71-3.67l-14.52-14.96,2.83-2.73,25.31,26.08Z"/>
      <path d="m222.62,161.67c2.01,2.49,2.69,5.16,2.02,8-.67,2.85-2.55,5.54-5.65,8.06-3.33,2.71-6.25,4.37-8.75,4.98l-2.58-3.17c1.54-.47,3.11-1.11,4.71-1.92,1.61-.82,3.08-1.78,4.42-2.88,2.18-1.78,3.48-3.53,3.92-5.27.44-1.73.06-3.34-1.15-4.81-.79-.98-1.65-1.63-2.56-1.94-.91-.3-2.03-.34-3.38-.13-1.35.22-3.23.77-5.65,1.63-3.39,1.21-6.17,1.64-8.33,1.27-2.18-.38-4.11-1.59-5.79-3.67-1.76-2.18-2.35-4.57-1.77-7.19.57-2.61,2.2-5.01,4.9-7.21,2.81-2.28,5.81-3.86,9-4.77l1.29,3.71c-3.11.92-5.77,2.27-7.98,4.06-1.72,1.42-2.77,2.9-3.15,4.44-.38,1.53-.03,2.95,1.04,4.27.81.99,1.64,1.65,2.5,1.98.86.33,1.94.42,3.23.25,1.28-.18,3.06-.68,5.33-1.5,3.8-1.34,6.76-1.86,8.85-1.56,2.11.31,3.95,1.43,5.52,3.35Z"/>
      <path d="m240.34,160.73l-3.46,2.42-20.83-29.79,16.6-11.6,2.15,3.08-13.15,9.19,7.63,10.9,12.33-8.65,2.15,3.08-12.33,8.65,8.92,12.73Z"/>
      <path d="m278.73,115.32c2.92,5.04,3.93,9.74,3.04,14.1-.88,4.36-3.58,7.85-8.1,10.48-4.64,2.68-9.04,3.33-13.21,1.94-4.16-1.39-7.72-4.66-10.71-9.81-2.97-5.14-4.01-9.84-3.1-14.13.91-4.28,3.68-7.76,8.33-10.44,4.51-2.63,8.86-3.23,13.06-1.81,4.21,1.41,7.77,4.63,10.69,9.67Zm-25.08,14.5c2.46,4.27,5.23,6.98,8.33,8.15,3.09,1.16,6.38.73,9.83-1.27,3.48-2.03,5.48-4.65,5.98-7.88.51-3.22-.47-6.98-2.94-11.27-2.45-4.22-5.19-6.91-8.23-8.06-3.03-1.17-6.28-.74-9.75,1.27-3.48,2.02-5.5,4.65-6.04,7.9-.55,3.24.39,6.96,2.81,11.17Z"/>
      <path d="m294.74,111.06l6.33,13.73-3.83,1.77-15.21-33.02,9.06-4.19c4.05-1.86,7.4-2.46,10.04-1.79,2.65.66,4.69,2.54,6.13,5.65,2.01,4.36,1.17,8.33-2.54,11.92l15.79,10.71-4.54,2.08-14.33-10.04-6.9,3.19Zm-1.52-3.29l5.27-2.44c2.71-1.25,4.45-2.71,5.23-4.38.78-1.67.67-3.57-.33-5.73-1-2.18-2.38-3.45-4.13-3.81-1.74-.38-4.02.09-6.85,1.4l-5,2.31,5.81,12.65Z"/>
      <path d="m343.12,107.44l-22.17-26.46-.17.06c1.04,2.35,2.14,5.19,3.27,8.52l7.54,21.85-3.69,1.27-11.83-34.38,6.02-2.08,20.63,24.6.21-.06,1.21-32.13,6-2.06,11.83,34.38-4,1.38-7.63-22.17c-.88-2.53-1.72-5.32-2.54-8.4l-.19.06-1.27,34.5-3.23,1.1Z"/>
      <path d="m395.95,92.69l-7.04-10.23-14.19,3.35-1.71,12.27-4.17.98,5.63-38.83,3.46-.81,22.29,32.27-4.27,1Zm-9.19-13.63l-6.71-10.02c-.86-1.23-1.82-2.8-2.88-4.71.03,1.64-.08,3.46-.31,5.46l-1.56,11.96,11.46-2.69Z"/>
      <path d="m418.74,88.84l-4.19.65-4.92-32.23-11.38,1.73-.56-3.71,26.96-4.1.56,3.71-11.4,1.73,4.92,32.23Z"/>
      <path d="m438.53,86.42l-3.35-36.21,4.21-.4,3.35,36.21-4.21.4Z"/>
      <path d="m486.56,66c.11,5.82-1.28,10.43-4.17,13.83-2.88,3.39-6.93,5.13-12.17,5.23-5.36.11-9.53-1.44-12.5-4.67-2.97-3.22-4.52-7.81-4.63-13.77-.13-5.93,1.23-10.55,4.08-13.85,2.86-3.32,6.98-5.03,12.35-5.15,5.22-.09,9.33,1.49,12.33,4.75,3,3.25,4.56,7.79,4.69,13.63Zm-28.98.58c.09,4.92,1.21,8.64,3.35,11.15,2.15,2.5,5.23,3.71,9.23,3.63,4.03-.08,7.04-1.41,9.04-3.98,2.01-2.58,2.97-6.34,2.88-11.29-.1-4.89-1.2-8.57-3.31-11.06-2.1-2.48-5.16-3.69-9.17-3.6-4.03.08-7.06,1.42-9.1,4s-3.02,6.31-2.92,11.17Z"/>
      <path d="m525.48,86.95l-4.79-.38-17.35-32.02-.21-.02c-.03,3.58-.16,6.86-.4,9.83l-1.67,20.6-3.9-.31,2.94-36.23,4.75.4,17.31,31.85.19.02c.01-.44.05-1.88.13-4.31.08-2.43.19-4.17.31-5.21l1.69-20.77,3.94.31-2.94,36.23Z"/>
      <path d="m560.19,92.59l-2.48-12.19-14.35-2.5-6.4,10.63-4.21-.73,20.44-33.52,3.5.63,7.81,38.44-4.31-.75Zm-3.1-16.17l-2.23-11.81c-.31-1.48-.56-3.3-.77-5.46-.64,1.5-1.45,3.14-2.44,4.9l-6.15,10.35,11.58,2.02Z"/>
      <path d="m571.87,95.21l9-35.23,4.08,1.06-8.04,31.52,15.54,3.98-.96,3.71-19.63-5.04Z"/>
      <path d="m646.37,92.24c-1.32,3.45-3.52,5.65-6.58,6.6-3.06.95-6.77.58-11.13-1.1l-3.98-1.52-5.13,13.33-3.96-1.52,13.04-33.94,8.79,3.38c8.48,3.27,11.46,8.19,8.94,14.77Zm-20.38.56l3.54,1.38c3.48,1.33,6.23,1.74,8.23,1.23,2-.53,3.48-2.03,4.44-4.52.86-2.25.76-4.21-.29-5.88-1.04-1.67-3.12-3.09-6.23-4.29l-4.4-1.69-5.29,13.77Z"/>
      <path d="m666.94,130.31l.96-12.38-13.15-6.33-9.04,8.46-3.85-1.85,28.81-26.65,3.21,1.54-3,39.13-3.94-1.92Zm1.44-16.38l1.08-12c.11-1.51.36-3.33.75-5.46-1.02,1.28-2.24,2.63-3.69,4.04l-8.75,8.29,10.6,5.13Z"/>
      <path d="m688.69,125.06l-7.69,13.02-3.63-2.15,18.5-31.29,8.58,5.08c3.83,2.27,6.23,4.68,7.19,7.23.97,2.54.59,5.29-1.15,8.25-2.45,4.14-6.2,5.7-11.25,4.69l.19,19.08-4.31-2.54.1-17.52-6.54-3.85Zm1.85-3.13l5,2.96c2.57,1.52,4.76,2.12,6.56,1.81,1.8-.32,3.31-1.5,4.52-3.54,1.22-2.07,1.48-3.92.79-5.56-.68-1.64-2.36-3.25-5.04-4.83l-4.75-2.81-7.08,11.98Z"/>
      <path d="m722.96,165.4l-16.58-11.67,20.92-29.73,16.58,11.67-2.17,3.06-13.13-9.23-6.73,9.58,12.33,8.67-2.15,3.04-12.33-8.67-7.71,10.96,13.13,9.23-2.17,3.08Z"/>
      <path d="m753.06,189.97l-3.69-3.1,4.48-36.15-.17-.13c-2.1,2.91-4.11,5.49-6.04,7.77l-13.31,15.81-2.98-2.5,23.42-27.79,3.65,3.06-4.4,36.02.15.1c.26-.36,1.13-1.52,2.6-3.46,1.47-1.93,2.55-3.28,3.25-4.04l13.44-15.94,3.02,2.54-23.42,27.79Z"/>
      <path d="m769.93,206.45l-2.98-2.98,23.1-23-8.13-8.17,2.65-2.65,19.25,19.31-2.65,2.65-8.15-8.17-23.1,23Z"/>
      <path d="m783.58,221l27.23-24.1,2.81,3.17-27.23,24.1-2.81-3.17Z"/>
      <path d="m812.05,256.23l-2.94-3.83,12.15-34.33-.13-.17c-2.68,2.39-5.2,4.49-7.56,6.31l-16.42,12.56-2.38-3.08,28.85-22.1,2.9,3.77-12.04,34.21.13.15c.32-.28,1.41-1.21,3.27-2.79,1.86-1.57,3.22-2.65,4.08-3.23l16.54-12.69,2.4,3.13-28.85,22.1Z"/>
      <path d="m843.59,269.81l6.52,10.5-15,9.33c-1.54-1.31-2.97-2.72-4.29-4.25-1.31-1.52-2.66-3.39-4.04-5.63-2.91-4.67-3.78-9.18-2.63-13.52,1.17-4.33,4.26-8.05,9.27-11.17,3.21-1.98,6.42-3.08,9.63-3.29,3.22-.21,6.22.5,9,2.13,2.78,1.63,5.17,4.06,7.19,7.31,2.05,3.3,3.36,6.75,3.94,10.33l-4.02.58c-.56-3.53-1.64-6.58-3.23-9.17-2.35-3.76-5.3-6-8.85-6.71-3.56-.72-7.32.15-11.29,2.6-4.17,2.6-6.7,5.58-7.58,8.96-.89,3.38-.1,7.03,2.35,10.98,1.33,2.14,2.88,4.07,4.63,5.81l9.52-5.92-4.29-6.9,3.19-2Z"/>
      <path d="m122.19,685.37c-1.86-3.55-4.52-5.73-7.98-6.54-3.45-.8-7.23-.13-11.35,2.04-4.22,2.22-6.97,4.93-8.23,8.13-1.27,3.19-.93,6.63,1,10.29,1.19,2.25,2.95,4.6,5.27,7.06l-3.29,1.75c-2.02-1.81-3.89-4.35-5.6-7.63-2.5-4.77-2.99-9.2-1.46-13.31,1.53-4.1,4.95-7.54,10.27-10.33,3.33-1.75,6.57-2.66,9.73-2.73,3.15-.08,6.03.7,8.63,2.33,2.59,1.64,4.73,4.05,6.42,7.23,1.78,3.38,2.71,6.66,2.79,9.85l-4.06.1c-.13-3.06-.83-5.81-2.13-8.25Z"/>
      <path d="m136.47,737.02c-4.89,3.21-9.54,4.49-13.96,3.85-4.42-.63-8.07-3.14-10.96-7.54-2.95-4.5-3.85-8.88-2.71-13.13,1.15-4.25,4.23-8.01,9.25-11.29,4.97-3.26,9.63-4.56,13.96-3.9,4.34.66,8,3.24,10.96,7.75,2.88,4.39,3.73,8.72,2.56,13-1.17,4.28-4.2,8.03-9.1,11.25Zm-15.94-24.31c-4.14,2.71-6.7,5.64-7.69,8.79-.97,3.17-.36,6.43,1.83,9.79,2.22,3.38,4.96,5.23,8.21,5.56,3.26.33,6.97-.86,11.13-3.58,4.09-2.7,6.65-5.6,7.65-8.71,1-3.11.4-6.35-1.81-9.71-2.22-3.39-4.98-5.26-8.27-5.63-3.29-.36-6.97.8-11.04,3.48Z"/>
      <path d="m144.04,776.21l6.19-10.83-9.17-11.4-11.85,3.77-2.69-3.35,37.63-11.73,2.23,2.77-19.56,34.19-2.77-3.42Zm8.38-14.25l6.15-10.4c.76-1.32,1.78-2.86,3.04-4.63-1.49.71-3.18,1.41-5.08,2.08l-11.52,3.73,7.42,9.21Z"/>
      <path d="m188.91,775.83c-2.78-2.89-5.94-4.24-9.48-4.06-3.53.18-6.97,1.89-10.33,5.1-3.45,3.31-5.33,6.66-5.67,10.06-.33,3.42.94,6.63,3.81,9.63,1.75,1.83,4.09,3.61,7.02,5.35l-2.69,2.58c-2.43-1.18-4.93-3.11-7.5-5.79-3.72-3.88-5.42-8-5.08-12.38s2.67-8.64,7-12.79c2.72-2.61,5.59-4.39,8.6-5.33,3.01-.94,5.99-.98,8.94-.13,2.94.85,5.66,2.57,8.15,5.17,2.64,2.77,4.45,5.67,5.44,8.71l-3.9,1.23c-.96-2.9-2.4-5.35-4.31-7.35Z"/>
      <path d="m201.94,832.83l-3.23-2.79,11.23-13-14.54-12.56-11.23,13-3.23-2.77,23.88-27.65,3.23,2.77-10.17,11.77,14.54,12.56,10.17-11.77,3.23,2.79-23.88,27.65Z"/>
      <path d="m260.53,833.8c-3.38-2.19-6.77-2.8-10.17-1.81-3.41.97-6.38,3.41-8.92,7.31-2.61,4-3.69,7.7-3.23,11.1.46,3.39,2.43,6.21,5.92,8.48,2.13,1.39,4.8,2.59,8.04,3.6l-2.04,3.13c-2.63-.58-5.49-1.89-8.6-3.9-4.5-2.95-7.09-6.58-7.77-10.92-.67-4.32.64-9,3.92-14.04,2.05-3.15,4.44-5.53,7.15-7.13,2.72-1.61,5.61-2.33,8.69-2.17,3.07.17,6.11,1.23,9.13,3.19,3.21,2.08,5.63,4.49,7.27,7.23l-3.52,2.08c-1.6-2.61-3.55-4.67-5.85-6.17Z"/>
      <path d="m279.37,882.89l-17.92-9.67,17.33-32.15,17.92,9.67-1.79,3.31-14.17-7.65-5.58,10.38,13.31,7.17-1.79,3.29-13.31-7.17-6.38,11.83,14.17,7.65-1.79,3.33Z"/>
      <path d="m301.74,876.67l-6.08,13.92-3.9-1.69,14.63-33.46,9.17,4c4.11,1.79,6.8,3.91,8.06,6.33,1.28,2.43,1.23,5.23-.15,8.4-1.93,4.42-5.48,6.43-10.65,6.02l2.5,19-4.58-2-2.04-17.46-6.96-3.06Zm1.46-3.33l5.31,2.33c2.75,1.21,5,1.55,6.75,1.02,1.76-.54,3.13-1.9,4.08-4.08.96-2.21,1-4.08.13-5.63-.86-1.55-2.73-2.96-5.6-4.21l-5.06-2.23-5.6,12.79Z"/>
      <path d="m336.8,906.82l-4-1.38,10.63-30.98-10.94-3.75,1.23-3.56,25.88,8.88-1.23,3.56-10.94-3.75-10.63,30.98Z"/>
      <path d="m358.11,913.42l9.73-35.21,4.1,1.15-9.73,35.21-4.1-1.15Z"/>
      <path d="m381.11,919.23l-4.15-.9,7.65-35.71,19.9,4.27-.79,3.69-15.75-3.38-2.79,13.08,14.79,3.17-.79,3.69-14.79-3.17-3.27,15.25Z"/>
      <path d="m407.98,924.36l5.54-36.1,4.21.65-5.54,36.1-4.21-.65Z"/>
      <path d="m445.83,895.36c-4-.34-7.27.72-9.81,3.19-2.53,2.46-3.99,6-4.4,10.63-.42,4.77.38,8.54,2.38,11.33s5.07,4.37,9.21,4.73c2.54.22,5.47.02,8.79-.63l-.31,3.71c-2.61.72-5.77.92-9.46.6-5.35-.47-9.34-2.46-11.98-5.96-2.63-3.5-3.68-8.25-3.17-14.25.33-3.75,1.32-6.97,2.96-9.67,1.65-2.69,3.86-4.69,6.65-5.98,2.78-1.29,5.96-1.78,9.54-1.48,3.8.33,7.07,1.32,9.81,2.96l-2.1,3.48c-2.64-1.54-5.34-2.43-8.1-2.67Z"/>
      <path d="m488.29,929.71l-4.56-11.6-14.63.02-4.5,11.6h-4.29l14.42-36.67,3.56-.02,14.4,36.67h-4.4Zm-5.88-15.44l-4.27-11.31c-.54-1.43-1.1-3.19-1.69-5.27-.38,1.6-.91,3.36-1.58,5.29l-4.27,11.31,11.81-.02Z"/>
      <path d="m514.54,928.04l-4.21.35-2.73-32.65-11.52.96-.31-3.75,27.25-2.27.31,3.75-11.52.96,2.73,32.65Z"/>
      <path d="m536.71,925.5l-5.25-36.15,4.21-.6,5.25,36.15-4.21.6Z"/>
      <path d="m583.25,897.8c1.28,5.71.83,10.52-1.33,14.44-2.16,3.91-5.8,6.43-10.94,7.56-5.25,1.17-9.66.47-13.23-2.1-3.57-2.58-6-6.8-7.29-12.65-1.29-5.8-.86-10.61,1.27-14.44,2.15-3.82,5.86-6.32,11.13-7.5,5.13-1.14,9.48-.4,13.08,2.21,3.59,2.6,6.03,6.76,7.31,12.48Zm-28.4,6.31c1.07,4.82,2.91,8.26,5.52,10.31,2.61,2.04,5.88,2.63,9.79,1.75,3.94-.88,6.65-2.78,8.1-5.71,1.47-2.94,1.67-6.84.58-11.69-1.07-4.79-2.89-8.2-5.44-10.23-2.56-2.04-5.8-2.63-9.73-1.75-3.95.89-6.67,2.81-8.17,5.75-1.5,2.95-1.72,6.8-.67,11.56Z"/>
      <path d="m627.96,902.69l-4.6,1.54-28.65-22.73-.19.06c1.39,3.33,2.56,6.42,3.52,9.25l6.58,19.69-3.71,1.25-11.58-34.63,4.54-1.52,28.54,22.6.21-.06c-.18-.4-.72-1.74-1.6-4.02-.88-2.28-1.47-3.92-1.77-4.92l-6.65-19.88,3.77-1.27,11.58,34.63Z"/>
      <path d="m665.33,865.21l11.08-5.56,7.96,15.85c-1.45,1.41-2.99,2.7-4.63,3.88-1.64,1.18-3.64,2.36-5.98,3.54-4.95,2.49-9.54,2.95-13.77,1.4-4.22-1.55-7.66-4.98-10.31-10.27-1.71-3.4-2.52-6.72-2.44-9.96.07-3.23,1.05-6.17,2.94-8.79,1.89-2.64,4.54-4.82,7.96-6.54,3.5-1.75,7.07-2.74,10.71-2.98l.21,4.1c-3.57.22-6.72,1.02-9.44,2.4-3.97,2-6.48,4.74-7.52,8.23-1.04,3.49-.51,7.33,1.6,11.52,2.21,4.41,4.95,7.2,8.23,8.4,3.29,1.18,7.03.73,11.21-1.35,2.25-1.14,4.33-2.51,6.25-4.1l-5.04-10.04-7.31,3.67-1.71-3.38Z"/>
      <path d="m693.25,854.25l8.04,12.88-3.63,2.25-19.33-30.98,8.52-5.29c3.79-2.38,7.05-3.4,9.77-3.08,2.72.32,5,1.95,6.83,4.9,2.54,4.08,2.19,8.14-1.06,12.17l17.1,8.69-4.25,2.65-15.56-8.19-6.44,4.02Zm-1.94-3.1l4.92-3.06c2.54-1.59,4.09-3.26,4.65-5,.57-1.75.22-3.64-1.04-5.67-1.28-2.04-2.81-3.14-4.58-3.29-1.77-.15-3.98.6-6.65,2.27l-4.67,2.92,7.38,11.83Z"/>
      <path d="m747.37,835.24l-10.65-6.52-11.69,8.77,3.4,11.98-3.44,2.58-10.48-37.98,2.85-2.15,33.5,20.67-3.5,2.65Zm-13.98-8.79l-10.19-6.5c-1.29-.82-2.8-1.89-4.52-3.21.67,1.5,1.31,3.22,1.92,5.17l3.35,11.63,9.44-7.08Z"/>
      <path d="m768.24,792.18c4.05,4.46,5.94,8.97,5.67,13.54-.27,4.56-2.68,8.91-7.23,13.04l-7.48,6.79-24.56-27.02,8.29-7.52c4.2-3.83,8.52-5.64,12.96-5.42,4.44.22,8.56,2.42,12.35,6.58Zm-3.21,3.15c-3.21-3.53-6.51-5.38-9.9-5.56-3.39-.18-6.82,1.31-10.31,4.48l-4.56,4.17,19.63,21.58,3.83-3.48c3.73-3.4,5.71-6.88,5.92-10.44.21-3.57-1.33-7.15-4.6-10.75Z"/>
      <path d="m782.01,750.93l17.54,15.83c3.09,2.78,4.69,5.91,4.77,9.38.09,3.46-1.33,6.82-4.27,10.08-2.95,3.27-6.11,4.99-9.5,5.17-3.39.18-6.65-1.13-9.77-3.94l-17.48-15.77,2.85-3.15,17.71,15.96c2.25,2.04,4.53,2.99,6.85,2.85,2.33-.15,4.58-1.43,6.75-3.83,2.07-2.29,3.05-4.6,2.94-6.94-.1-2.33-1.29-4.52-3.56-6.56l-17.67-15.94,2.83-3.15Z"/>
      <path d="m832.6,744.86l-12.04-3.27-8.73,11.73,6.63,10.54-2.56,3.44-20.77-33.48,2.13-2.85,37.98,10.38-2.63,3.52Zm-15.88-4.52l-11.63-3.33c-1.46-.42-3.2-1.01-5.23-1.79,1.06,1.25,2.15,2.72,3.27,4.42l6.52,10.19,7.06-9.48Z"/>
      <path d="m846.97,722.8l-2.25,3.58-27.79-17.33-6.1,9.81-3.21-1.98,14.46-23.21,3.21,1.98-6.1,9.81,27.79,17.33Z"/>
      <path d="m867.82,685.22l-9.4,18.06-32.4-16.85,9.4-18.06,3.33,1.75-7.44,14.29,10.46,5.42,6.98-13.42,3.31,1.73-6.98,13.42,11.94,6.21,7.44-14.29,3.35,1.75Z"/>
      <g>
        <path d="m155.26,498.39c-3.78,0-7.07-.4-9.88-1.19v-13.94c2.88.72,5.5,1.08,7.88,1.08,3.68,0,6.31-1.15,7.9-3.44s2.38-5.86,2.38-10.73v-74h16.75v73.9c0,9.22-2.11,16.24-6.33,21.06-4.21,4.83-10.44,7.25-18.69,7.25Z"/>
        <path d="m237.21,475.16l-3.19-8.21h-.44c-2.78,3.49-5.64,5.91-8.56,7.27-2.93,1.34-6.76,2.02-11.48,2.02-5.79,0-10.35-1.65-13.69-4.96-3.33-3.32-5-8.04-5-14.17s2.24-11.15,6.73-14.19c4.48-3.04,11.24-4.72,20.27-5.04l10.48-.33v-2.65c0-6.11-3.14-9.17-9.4-9.17-4.82,0-10.49,1.46-17.02,4.38l-5.44-11.13c6.94-3.64,14.65-5.46,23.1-5.46s14.32,1.77,18.65,5.29c4.32,3.53,6.48,8.89,6.48,16.08v40.25h-11.5Zm-4.88-27.98l-6.38.21c-4.78.16-8.34,1.02-10.69,2.6-2.33,1.58-3.5,3.99-3.5,7.23,0,4.66,2.66,6.98,7.98,6.98,3.82,0,6.86-1.09,9.15-3.29,2.29-2.21,3.44-5.13,3.44-8.77v-4.96Z"/>
        <path d="m264.97,399.16c0-5.36,2.99-8.04,8.98-8.04s8.96,2.68,8.96,8.04c0,2.56-.75,4.55-2.25,5.98-1.49,1.42-3.72,2.13-6.71,2.13-5.99,0-8.98-2.7-8.98-8.1Zm17.19,76h-16.48v-60.4h16.48v60.4Z"/>
        <path d="m329.47,475.16v-78.98h16.75v78.98h-16.75Z"/>
        <path d="m420.55,475.16h-16.48v-35.27c0-4.36-.78-7.63-2.33-9.81-1.54-2.18-4.01-3.27-7.4-3.27-4.61,0-7.95,1.54-10,4.63-2.04,3.08-3.06,8.19-3.06,15.31v28.42h-16.48v-60.4h12.58l2.21,7.73h.92c1.84-2.92,4.38-5.11,7.6-6.6,3.22-1.5,6.88-2.25,10.98-2.25,7.03,0,12.36,1.91,16,5.71,3.64,3.79,5.46,9.27,5.46,16.44v39.38Z"/>
        <path d="m479.63,457.22c0,6.2-2.16,10.92-6.46,14.17-4.29,3.24-10.73,4.85-19.31,4.85-4.39,0-8.14-.3-11.23-.9-3.1-.59-5.99-1.47-8.69-2.63v-13.6c3.05,1.45,6.5,2.66,10.33,3.63,3.83.97,7.21,1.46,10.13,1.46,5.98,0,8.98-1.73,8.98-5.19,0-1.3-.4-2.36-1.19-3.17-.79-.8-2.16-1.72-4.1-2.75-1.95-1.03-4.54-2.23-7.79-3.6-4.64-1.94-8.05-3.74-10.23-5.4-2.18-1.65-3.77-3.55-4.75-5.69-.99-2.15-1.48-4.79-1.48-7.92,0-5.38,2.07-9.53,6.23-12.46,4.15-2.93,10.05-4.4,17.69-4.4s14.35,1.58,21.23,4.75l-4.96,11.88c-3.03-1.29-5.86-2.34-8.5-3.17-2.63-.83-5.31-1.25-8.04-1.25-4.86,0-7.29,1.31-7.29,3.94,0,1.47.78,2.75,2.35,3.83,1.57,1.08,5,2.69,10.29,4.81,4.72,1.91,8.18,3.69,10.38,5.35,2.19,1.66,3.81,3.56,4.85,5.73,1.04,2.16,1.56,4.72,1.56,7.71Z"/>
        <path d="m517.93,463.12c2.88,0,6.33-.63,10.38-1.9v12.27c-4.11,1.83-9.16,2.75-15.13,2.75-6.6,0-11.41-1.67-14.42-5-3-3.33-4.5-8.32-4.5-14.98v-29.13h-7.88v-6.96l9.06-5.52,4.77-12.75h10.52v12.85h16.92v12.38h-16.92v29.13c0,2.33.65,4.06,1.96,5.19,1.32,1.11,3.06,1.67,5.23,1.67Z"/>
        <path d="m539.8,399.16c0-5.36,2.99-8.04,8.98-8.04s8.96,2.68,8.96,8.04c0,2.56-.75,4.55-2.25,5.98-1.49,1.42-3.72,2.13-6.71,2.13-5.99,0-8.98-2.7-8.98-8.1Zm17.19,76h-16.48v-60.4h16.48v60.4Z"/>
        <path d="m599.71,463.12c2.88,0,6.33-.63,10.38-1.9v12.27c-4.11,1.83-9.16,2.75-15.13,2.75-6.6,0-11.41-1.67-14.42-5-3-3.33-4.5-8.32-4.5-14.98v-29.13h-7.88v-6.96l9.06-5.52,4.77-12.75h10.52v12.85h16.92v12.38h-16.92v29.13c0,2.33.65,4.06,1.96,5.19,1.32,1.11,3.06,1.67,5.23,1.67Z"/>
        <path d="m665.06,475.16l-2.21-7.73h-.85c-1.78,2.81-4.29,4.98-7.52,6.52-3.24,1.53-6.93,2.29-11.06,2.29-7.1,0-12.45-1.9-16.06-5.69-3.6-3.8-5.4-9.28-5.4-16.42v-39.38h16.48v35.27c0,4.36.77,7.64,2.31,9.81,1.55,2.18,4.03,3.27,7.42,3.27,4.61,0,7.94-1.54,9.98-4.63,2.05-3.08,3.08-8.19,3.08-15.31v-28.42h16.48v60.4h-12.65Z"/>
        <path d="m720.44,463.12c2.88,0,6.33-.63,10.38-1.9v12.27c-4.11,1.83-9.16,2.75-15.13,2.75-6.6,0-11.41-1.67-14.42-5-3-3.33-4.5-8.32-4.5-14.98v-29.13h-7.88v-6.96l9.06-5.52,4.77-12.75h10.52v12.85h16.92v12.38h-16.92v29.13c0,2.33.65,4.06,1.96,5.19,1.32,1.11,3.06,1.67,5.23,1.67Z"/>
        <path d="m768.02,425.35c-3.49,0-6.22,1.11-8.21,3.33-1.97,2.21-3.1,5.35-3.4,9.42h23.13c-.08-4.07-1.16-7.21-3.21-9.42-2.04-2.22-4.81-3.33-8.31-3.33Zm2.33,50.9c-9.72,0-17.32-2.68-22.79-8.04-5.47-5.38-8.21-12.98-8.21-22.81s2.53-17.93,7.58-23.46c5.05-5.53,12.05-8.29,20.98-8.29s15.19,2.43,19.94,7.29c4.75,4.86,7.13,11.58,7.13,20.15v8h-38.94c.18,4.68,1.56,8.33,4.15,10.96,2.59,2.63,6.23,3.94,10.92,3.94,3.64,0,7.07-.38,10.31-1.13,3.25-.76,6.64-1.97,10.17-3.63v12.75c-2.89,1.45-5.97,2.52-9.25,3.21-3.28.71-7.27,1.06-11.98,1.06Z"/>
      </g>
      <path d="m266.8,540.34h5.52c5.15,0,9.01-1.01,11.56-3.04,2.55-2.04,3.83-5.01,3.83-8.9s-1.08-6.82-3.23-8.69c-2.14-1.88-5.49-2.81-10.06-2.81h-7.63v23.44Zm37.83-12.52c0,8.5-2.66,15-7.98,19.5-5.31,4.5-12.86,6.75-22.67,6.75h-7.19v28.1h-16.75v-79h25.25c9.57,0,16.84,2.06,21.83,6.19,5,4.13,7.5,10.28,7.5,18.46Z"/>
      <path d="m356.61,582.17l-3.19-8.21h-.44c-2.78,3.49-5.64,5.91-8.58,7.27-2.93,1.34-6.75,2.02-11.46,2.02-5.81,0-10.38-1.65-13.71-4.96-3.33-3.32-5-8.04-5-14.17s2.24-11.15,6.73-14.19c4.48-3.04,11.25-4.73,20.29-5.06l10.48-.31v-2.65c0-6.13-3.14-9.19-9.4-9.19-4.83,0-10.51,1.46-17.02,4.38l-5.46-11.15c6.94-3.63,14.65-5.44,23.13-5.44s14.32,1.77,18.65,5.29c4.32,3.53,6.48,8.9,6.48,16.1v40.25h-11.5Zm-4.88-28l-6.38.23c-4.79.14-8.36,1-10.71,2.58-2.33,1.58-3.5,4-3.5,7.25,0,4.64,2.67,6.96,8,6.96,3.82,0,6.86-1.09,9.15-3.29,2.29-2.19,3.44-5.11,3.44-8.75v-4.98Z"/>
      <path d="m418.8,520.63c2.22,0,4.07.16,5.56.48l-1.25,15.46c-1.33-.36-2.95-.54-4.85-.54-5.27,0-9.37,1.35-12.31,4.06-2.93,2.7-4.4,6.47-4.4,11.33v30.75h-16.48v-60.42h12.48l2.44,10.17h.81c1.88-3.39,4.4-6.11,7.58-8.19,3.19-2.07,6.67-3.1,10.42-3.1Z"/>
      <path d="m460.34,532.36c-3.5,0-6.24,1.11-8.23,3.33-1.97,2.21-3.1,5.35-3.4,9.42h23.13c-.07-4.07-1.14-7.21-3.19-9.42-2.04-2.22-4.81-3.33-8.31-3.33Zm2.31,50.9c-9.72,0-17.32-2.68-22.79-8.04-5.47-5.38-8.21-12.98-8.21-22.81s2.53-17.95,7.58-23.48c5.05-5.53,12.05-8.29,21-8.29s15.17,2.43,19.92,7.29c4.76,4.86,7.15,11.58,7.15,20.15v8h-38.96c.18,4.68,1.57,8.34,4.17,10.98,2.59,2.63,6.23,3.94,10.92,3.94,3.64,0,7.07-.38,10.31-1.13,3.25-.76,6.64-1.97,10.17-3.63v12.75c-2.89,1.45-5.97,2.52-9.25,3.21-3.28.71-7.28,1.06-12,1.06Z"/>
      <path d="m556.47,582.17h-16.48v-35.29c0-4.36-.78-7.63-2.33-9.79-1.54-2.18-4.01-3.27-7.4-3.27-4.61,0-7.95,1.54-10,4.63-2.06,3.07-3.08,8.18-3.08,15.31v28.42h-16.48v-60.42h12.58l2.23,7.73h.92c1.83-2.92,4.36-5.11,7.58-6.6,3.22-1.5,6.89-2.25,11-2.25,7.03,0,12.36,1.91,16,5.71,3.64,3.79,5.46,9.27,5.46,16.44v39.4Z"/>
      <path d="m598.88,570.13c2.88,0,6.33-.63,10.38-1.9v12.27c-4.11,1.83-9.16,2.75-15.15,2.75-6.58,0-11.39-1.67-14.4-5-3-3.33-4.5-8.33-4.5-15v-29.13h-7.9v-6.96l9.08-5.52,4.75-12.75h10.54v12.85h16.92v12.38h-16.92v29.13c0,2.35.65,4.08,1.96,5.21,1.32,1.11,3.06,1.67,5.23,1.67Z"/>
      <path d="m620.75,506.15c0-5.38,2.99-8.06,8.98-8.06s8.96,2.69,8.96,8.06c0,2.56-.75,4.55-2.25,5.98-1.49,1.42-3.72,2.13-6.71,2.13-5.99,0-8.98-2.7-8.98-8.1Zm17.19,76.02h-16.48v-60.42h16.48v60.42Z"/>
      <path d="m710.99,582.17h-16.48v-35.29c0-4.36-.78-7.63-2.33-9.79-1.54-2.18-4.01-3.27-7.4-3.27-4.61,0-7.95,1.54-10,4.63-2.06,3.07-3.08,8.18-3.08,15.31v28.42h-16.48v-60.42h12.58l2.23,7.73h.92c1.83-2.92,4.36-5.11,7.58-6.6,3.22-1.5,6.89-2.25,11-2.25,7.03,0,12.36,1.91,16,5.71,3.64,3.79,5.46,9.27,5.46,16.44v39.4Z"/>
      <path d="m780.53,521.75v8.38l-9.46,2.44c1.72,2.7,2.58,5.72,2.58,9.08,0,6.49-2.27,11.54-6.79,15.17-4.52,3.61-10.79,5.42-18.81,5.42l-2.98-.17-2.42-.27c-1.7,1.31-2.54,2.75-2.54,4.33,0,2.38,3.02,3.56,9.06,3.56h10.27c6.63,0,11.67,1.43,15.15,4.27,3.48,2.85,5.23,7.03,5.23,12.54,0,7.05-2.95,12.53-8.83,16.42-5.89,3.89-14.35,5.83-25.38,5.83-8.43,0-14.87-1.47-19.31-4.42-4.45-2.93-6.67-7.04-6.67-12.33,0-3.64,1.13-6.69,3.4-9.15,2.26-2.44,5.59-4.19,10-5.23-1.7-.72-3.18-1.9-4.44-3.54-1.27-1.64-1.9-3.38-1.9-5.21,0-2.3.67-4.22,2-5.75,1.33-1.54,3.26-3.05,5.79-4.52-3.17-1.36-5.68-3.55-7.54-6.58-1.86-3.03-2.79-6.59-2.79-10.71,0-6.59,2.15-11.69,6.44-15.29,4.29-3.59,10.42-5.4,18.38-5.4,1.69,0,3.7.16,6.02.46,2.32.31,3.8.53,4.46.67h21.08Zm-46.65,68.96c0,2.26,1.09,4.04,3.27,5.33,2.18,1.3,5.23,1.96,9.17,1.96,5.9,0,10.53-.81,13.88-2.44,3.36-1.61,5.04-3.83,5.04-6.65,0-2.27-.99-3.83-2.98-4.71-1.99-.86-5.05-1.29-9.19-1.29h-8.54c-3.03,0-5.56.71-7.6,2.13-2.03,1.43-3.04,3.32-3.04,5.67Zm6-49.19c0,3.29.75,5.89,2.25,7.79,1.5,1.91,3.78,2.85,6.83,2.85s5.36-.95,6.81-2.85c1.44-1.9,2.17-4.5,2.17-7.79,0-7.26-2.99-10.9-8.98-10.9s-9.08,3.64-9.08,10.9Z"/>
      <g>
        <path d="m172.42,551.49c-1.04,0-1.98-.16-2.83-.48v-3.17c.97.33,1.81.5,2.52.5,1.16,0,2.04-.47,2.65-1.4.61-.93,1.1-2.27,1.48-4l5.13-24.38h-4.35l.29-1.5,4.65-1.5.52-2.25c.69-3,1.65-5.11,2.88-6.35,1.22-1.25,3.03-1.88,5.44-1.88.59,0,1.33.09,2.21.27.88.17,1.55.35,2.02.56l-.96,2.92c-1.14-.44-2.17-.67-3.08-.67-1.31,0-2.31.37-3.02,1.1-.7.72-1.26,2.06-1.69,4l-.56,2.44h5.35l-.56,2.85h-5.33l-5.23,24.75c-.6,2.83-1.51,4.9-2.73,6.21-1.21,1.3-2.8,1.96-4.77,1.96Z"/>
        <path d="m203.68,515.38c2.86,0,5.11.85,6.77,2.54,1.65,1.7,2.48,4.02,2.48,6.98s-.54,5.49-1.63,8c-1.08,2.5-2.55,4.44-4.4,5.81-1.85,1.36-3.94,2.04-6.27,2.04-2.88,0-5.14-.84-6.77-2.54-1.64-1.69-2.46-4.01-2.46-6.96s.55-5.55,1.65-8.06c1.09-2.51,2.57-4.44,4.44-5.79,1.86-1.34,3.92-2.02,6.19-2.02Zm5.33,9c0-1.72-.47-3.11-1.42-4.19-.95-1.08-2.22-1.63-3.81-1.63s-3.11.56-4.42,1.67c-1.29,1.11-2.3,2.66-3.02,4.63-.71,1.97-1.06,4.18-1.06,6.6,0,1.96.47,3.48,1.42,4.56.96,1.07,2.33,1.6,4.13,1.6,1.57,0,2.97-.55,4.21-1.65,1.25-1.09,2.22-2.65,2.92-4.67.71-2.03,1.06-4.34,1.06-6.94Z"/>
        <path d="m232.03,515.26c1.04,0,1.94.1,2.71.31l-.81,3.38c-.79-.19-1.58-.29-2.35-.29-1.38,0-2.66.45-3.85,1.35-1.2.91-2.24,2.16-3.13,3.75-.89,1.6-1.55,3.38-1.98,5.33l-2.4,11.31h-3.79l5.27-24.69h3.13l-.5,4.56h.23c1.08-1.43,1.98-2.45,2.69-3.06.71-.63,1.44-1.1,2.21-1.44.78-.34,1.64-.52,2.58-.52Z"/>
      </g>
      <g class="cls-2">
        <path d="m476.34,964.22C213.82,964.22,0,750.4,0,487.56S213.82,11.22,476.34,11.22s476.34,213.82,476.34,476.34c.32,262.84-213.49,476.66-476.34,476.66Zm0-944.94C218.02,19.28,8.06,229.23,8.06,487.56s210.28,468.6,468.28,468.6,468.6-210.27,468.6-468.6S734.67,19.28,476.34,19.28Z"/>
      </g>
    </g>
  </g>
</svg>